<?xml version="1.0" encoding="UTF-8"?>
<svg id="Layer_1" data-name="Layer 1" xmlns="http://www.w3.org/2000/svg" xmlns:xlink="http://www.w3.org/1999/xlink" viewBox="0 0 1600 265">
  <defs>
    <style>
      .cls-1 {
        letter-spacing: -.02em;
      }

      .cls-1, .cls-2, .cls-3, .cls-4, .cls-5, .cls-6, .cls-7, .cls-8 {
        font-family: RubikItalic-MediumItalic, Rubik;
        font-variation-settings: 'wght' 500;
        font-weight: 500;
      }

      .cls-9, .cls-10, .cls-11, .cls-12 {
        font-family: RubikItalic-BoldItalic, Rubik;
        font-variation-settings: 'wght' 700;
        font-weight: 700;
      }

      .cls-2 {
        letter-spacing: -.02em;
      }

      .cls-13 {
        letter-spacing: -.02em;
      }

      .cls-14 {
        font-size: 13.46px;
      }

      .cls-14, .cls-15, .cls-10, .cls-16, .cls-17, .cls-18 {
        fill: #fff;
      }

      .cls-14, .cls-10, .cls-16, .cls-17 {
        font-style: italic;
      }

      .cls-15 {
        stroke: #0b233d;
        stroke-linejoin: round;
        stroke-width: .9px;
      }

      .cls-15, .cls-19, .cls-20 {
        stroke-linecap: round;
      }

      .cls-21 {
        clip-path: url(#clippath);
      }

      .cls-22, .cls-19, .cls-23, .cls-20 {
        fill: none;
      }

      .cls-22, .cls-24, .cls-25, .cls-26, .cls-27, .cls-28, .cls-29, .cls-30, .cls-31, .cls-32, .cls-33, .cls-34, .cls-35, .cls-36, .cls-37, .cls-38, .cls-39, .cls-40, .cls-41, .cls-42, .cls-43, .cls-44, .cls-45, .cls-46, .cls-47, .cls-48, .cls-49, .cls-50, .cls-51, .cls-52, .cls-53, .cls-54, .cls-55, .cls-56, .cls-57, .cls-58, .cls-59, .cls-60, .cls-61, .cls-62, .cls-63, .cls-64, .cls-65, .cls-66, .cls-67, .cls-68, .cls-69, .cls-70, .cls-71, .cls-72, .cls-73, .cls-74, .cls-75, .cls-76, .cls-77, .cls-78, .cls-79, .cls-80, .cls-81, .cls-82, .cls-83, .cls-84, .cls-85, .cls-86, .cls-87, .cls-88, .cls-89, .cls-90, .cls-91, .cls-92, .cls-93, .cls-94, .cls-95, .cls-96, .cls-97, .cls-98, .cls-99, .cls-100, .cls-101, .cls-102, .cls-103, .cls-104, .cls-105, .cls-106, .cls-107, .cls-108, .cls-109, .cls-110, .cls-111, .cls-112, .cls-113, .cls-114, .cls-115, .cls-116, .cls-117, .cls-118, .cls-119, .cls-120, .cls-121, .cls-122, .cls-123, .cls-124, .cls-125, .cls-126, .cls-127, .cls-128, .cls-129, .cls-130, .cls-131, .cls-132, .cls-133, .cls-134, .cls-135, .cls-18, .cls-136, .cls-137, .cls-138, .cls-139, .cls-140, .cls-141, .cls-142, .cls-143, .cls-144 {
        stroke-width: 0px;
      }

      .cls-3, .cls-12 {
        letter-spacing: 0em;
      }

      .cls-19 {
        stroke: #3d3200;
        stroke-width: 3.66px;
      }

      .cls-19, .cls-23, .cls-20 {
        stroke-miterlimit: 10;
      }

      .cls-10 {
        font-size: 30.68px;
      }

      .cls-16 {
        filter: url(#drop-shadow-1);
        font-size: 30.51px;
        letter-spacing: 0em;
      }

      .cls-16, .cls-17 {
        font-family: Poppins-BlackItalic, Poppins;
        font-weight: 800;
      }

      .cls-23 {
        stroke: #aaaaae;
        stroke-width: 3.2px;
      }

      .cls-145 {
        letter-spacing: 0em;
      }

      .cls-4 {
        letter-spacing: -.01em;
      }

      .cls-146 {
        clip-path: url(#clippath-1);
      }

      .cls-147 {
        clip-path: url(#clippath-4);
      }

      .cls-148 {
        clip-path: url(#clippath-3);
      }

      .cls-149 {
        clip-path: url(#clippath-2);
      }

      .cls-150 {
        clip-path: url(#clippath-7);
      }

      .cls-151 {
        clip-path: url(#clippath-8);
      }

      .cls-152 {
        clip-path: url(#clippath-6);
      }

      .cls-153 {
        clip-path: url(#clippath-5);
      }

      .cls-154 {
        clip-path: url(#clippath-9);
      }

      .cls-11 {
        letter-spacing: 0em;
      }

      .cls-5 {
        letter-spacing: -.03em;
      }

      .cls-6 {
        letter-spacing: 0em;
      }

      .cls-155 {
        clip-path: url(#clippath-20);
      }

      .cls-156 {
        clip-path: url(#clippath-14);
      }

      .cls-157 {
        clip-path: url(#clippath-13);
      }

      .cls-158 {
        clip-path: url(#clippath-12);
      }

      .cls-159 {
        clip-path: url(#clippath-10);
      }

      .cls-160 {
        clip-path: url(#clippath-15);
      }

      .cls-161 {
        clip-path: url(#clippath-17);
      }

      .cls-162 {
        clip-path: url(#clippath-16);
      }

      .cls-163 {
        clip-path: url(#clippath-19);
      }

      .cls-164 {
        clip-path: url(#clippath-11);
      }

      .cls-165 {
        clip-path: url(#clippath-18);
      }

      .cls-17 {
        filter: url(#drop-shadow-3);
        font-size: 59.86px;
        letter-spacing: 0em;
      }

      .cls-166 {
        letter-spacing: -.06em;
      }

      .cls-167 {
        isolation: isolate;
      }

      .cls-168 {
        letter-spacing: 0em;
      }

      .cls-24 {
        filter: url(#drop-shadow-4);
      }

      .cls-24, .cls-86 {
        fill: #d22544;
      }

      .cls-25 {
        fill: #5d7700;
      }

      .cls-26 {
        fill: #607c00;
      }

      .cls-27 {
        fill: #5f7a00;
      }

      .cls-28 {
        fill: #7a0600;
      }

      .cls-29 {
        fill: #799c00;
      }

      .cls-30 {
        fill: #759700;
      }

      .cls-31 {
        fill: #850700;
      }

      .cls-32 {
        fill: #256c8a;
      }

      .cls-33 {
        fill: #2b7c9e;
      }

      .cls-34 {
        fill: #287494;
      }

      .cls-35 {
        fill: #2c80a3;
      }

      .cls-36 {
        fill: #297899;
      }

      .cls-37 {
        fill: #283300;
      }

      .cls-38 {
        fill: #27708f;
      }

      .cls-39 {
        fill: #8a0700;
      }

      .cls-40 {
        fill: #87ae00;
      }

      .cls-41 {
        fill: #890700;
      }

      .cls-42 {
        fill: #898989;
      }

      .cls-43 {
        fill: #9b0800;
      }

      .cls-44 {
        fill: #6e8e00;
      }

      .cls-45 {
        fill: #a40800;
      }

      .cls-46 {
        fill: #99c500;
      }

      .cls-47 {
        fill: #960800;
      }

      .cls-48 {
        fill: #2e84a8;
      }

      .cls-49 {
        fill: #308cb3;
      }

      .cls-50 {
        fill: #3bacdc;
      }

      .cls-51 {
        fill: #3290b8;
      }

      .cls-52 {
        fill: #256b89;
      }

      .cls-53 {
        fill: #840700;
      }

      .cls-54 {
        fill: #1b3888;
      }

      .cls-55 {
        fill: #0c2642;
      }

      .cls-56 {
        fill: #0c233e;
      }

      .cls-57 {
        fill: #0d2847;
      }

      .cls-58 {
        fill: #0d2744;
      }

      .cls-59 {
        fill: #0c2540;
      }

      .cls-60 {
        fill: #359ac5;
      }

      .cls-61 {
        fill: #0f2f53;
      }

      .cls-62 {
        fill: #0f2e51;
      }

      .cls-63 {
        fill: #0e2b4b;
      }

      .cls-64 {
        fill: #0e2949;
      }

      .cls-65 {
        fill: #0f2d4f;
      }

      .cls-66 {
        fill: #0a2038;
      }

      .cls-67 {
        fill: #0a1f36;
      }

      .cls-68 {
        fill: #1b528e;
      }

      .cls-69 {
        fill: #0e2c4d;
      }

      .cls-70 {
        fill: #1c5594;
      }

      .cls-71 {
        fill: #0b233d;
      }

      .cls-72 {
        fill: #0b223c;
      }

      .cls-73 {
        fill: #0a1d30;
      }

      .cls-74 {
        fill: #0b213a;
      }

      .cls-75 {
        fill: #071624;
      }

      .cls-76 {
        fill: #227ca1;
      }

      .cls-77 {
        fill: #2062ab;
      }

      .cls-78 {
        fill: #1e5b9f;
      }

      .cls-79 {
        fill: #13395e;
      }

      .cls-80 {
        fill: #133963;
      }

      .cls-81 {
        fill: #103156;
      }

      .cls-82 {
        fill: #103053;
      }

      .cls-83 {
        fill: #246885;
      }

      .cls-84 {
        fill: #236ab8;
      }

      .cls-85 {
        fill: #ca0a00;
      }

      .cls-87 {
        fill: #d30b00;
      }

      .cls-88 {
        fill: #cc0a00;
      }

      .cls-89 {
        fill: #cf0b00;
      }

      .cls-90 {
        fill: #ccc;
      }

      .cls-91 {
        fill: #e0e0e0;
      }

      .cls-92 {
        fill: #db0b00;
      }

      .cls-93 {
        fill: #ae0900;
      }

      .cls-94 {
        fill: #c70a00;
      }

      .cls-95 {
        fill: #c5c5c5;
      }

      .cls-96 {
        fill: #e20c00;
      }

      .cls-97 {
        fill: #d80b00;
      }

      .cls-98 {
        fill: #d6d9de;
      }

      .cls-99 {
        fill: #dcdcdc;
      }

      .cls-100 {
        fill: #dc0b00;
      }

      .cls-101 {
        fill: #c10a00;
      }

      .cls-102 {
        fill: #dd0b00;
      }

      .cls-103 {
        fill: #a80900;
      }

      .cls-104 {
        fill: #c20a00;
      }

      .cls-105 {
        fill: #b30900;
      }

      .cls-106 {
        fill: #ad0900;
      }

      .cls-107 {
        fill: #a90900;
      }

      .cls-108 {
        fill: #b70900;
      }

      .cls-109 {
        fill: #b80900;
      }

      .cls-110 {
        fill: #9e0800;
      }

      .cls-111 {
        fill: #a00800;
      }

      .cls-112 {
        fill: #a30800;
      }

      .cls-113 {
        fill: #8bb300;
      }

      .cls-114 {
        fill: #8d0700;
      }

      .cls-115 {
        fill: #c50a00;
      }

      .cls-116 {
        fill: #920700;
      }

      .cls-117 {
        fill: #729300;
      }

      .cls-118 {
        fill: #bd0a00;
      }

      .cls-119 {
        fill: #2f88ad;
      }

      .cls-120 {
        fill: #8f0700;
      }

      .cls-121 {
        fill: #8eb700;
      }

      .cls-122 {
        fill: #bc0a00;
      }

      .cls-123 {
        fill: #990800;
      }

      .cls-124 {
        fill: #6b8900;
      }

      .cls-125 {
        fill: #7e0600;
      }

      .cls-126 {
        fill: #8ab100;
      }

      .cls-127 {
        fill: #940800;
      }

      .cls-128 {
        fill: #84a900;
      }

      .cls-129 {
        fill: #880700;
      }

      .cls-130 {
        fill: #7f0600;
      }

      .cls-131 {
        fill: #7da000;
      }

      .cls-132 {
        fill: #80a500;
      }

      .cls-133 {
        fill: #648000;
      }

      .cls-134 {
        fill: #678500;
      }

      .cls-135 {
        fill: #e60c00;
      }

      .cls-136 {
        fill: #f0463d;
      }

      .cls-137 {
        fill: #f04d44;
      }

      .cls-138 {
        fill: #e8e8e8;
      }

      .cls-139 {
        fill: #e53535;
      }

      .cls-140 {
        fill: #ef3f35;
      }

      .cls-141 {
        fill: #ff0d00;
      }

      .cls-142 {
        fill: #ed291f;
      }

      .cls-143 {
        fill: #ee352b;
      }

      .cls-144 {
        fill: #eb0c00;
      }

      .cls-20 {
        stroke: #fff;
        stroke-width: 1.46px;
      }

      .cls-8 {
        letter-spacing: -.02em;
      }
    </style>
    <filter id="drop-shadow-1" filterUnits="userSpaceOnUse">
      <feOffset dx="5" dy="5"/>
      <feGaussianBlur result="blur" stdDeviation="3"/>
      <feFlood flood-color="#000" flood-opacity=".5"/>
      <feComposite in2="blur" operator="in"/>
      <feComposite in="SourceGraphic"/>
    </filter>
    <clipPath id="clippath">
      <path class="cls-22" d="m350.38,52.55l3.41,1.98c-.39-.23-.94-.2-1.54.15l-3.41-1.98c.6-.35,1.15-.38,1.54-.15Z"/>
    </clipPath>
    <clipPath id="clippath-1">
      <path class="cls-22" d="m301.61,122.38l-3.41-1.98c-.39-.23-.63-.71-.63-1.39l3.41,1.98c0,.68.24,1.16.63,1.39Z"/>
    </clipPath>
    <clipPath id="clippath-2">
      <path class="cls-22" d="m300.88,86.84l-3.41-1.98c0-1.37.96-3.05,2.16-3.74l3.41,1.98c-1.19.69-2.16,2.36-2.16,3.74Z"/>
    </clipPath>
    <clipPath id="clippath-3">
      <path class="cls-22" d="m314.84,101.52l3.41,1.98c-.39-.23-.94-.2-1.54.15l-3.41-1.98c.6-.35,1.15-.38,1.54-.15Z"/>
    </clipPath>
    <clipPath id="clippath-4">
      <path class="cls-22" d="m233.09,214.59l-3.41-1.98c-.39-.23-.63-.71-.63-1.39l3.41,1.98c0,.68.24,1.16.63,1.39Z"/>
    </clipPath>
    <clipPath id="clippath-5">
      <path class="cls-22" d="m232.29,154.89l-3.41-1.98c0-1.37.96-3.05,2.16-3.74l3.41,1.98c-1.19.69-2.16,2.36-2.16,3.74Z"/>
    </clipPath>
    <clipPath id="clippath-6">
      <path class="cls-22" d="m628.31,183.51l6.22,3.61c-3.5-2.04-8.36-1.75-13.71,1.34l-6.22-3.61c5.36-3.09,10.21-3.38,13.71-1.34Z"/>
    </clipPath>
    <clipPath id="clippath-7">
      <path class="cls-22" d="m607.23,234.09l-6.22-3.61c-3.46-2.01-5.6-6.28-5.62-12.35-.03-12.23,8.56-27.12,19.21-33.27l6.22,3.61c-10.64,6.15-19.24,21.04-19.21,33.27.02,6.07,2.16,10.34,5.62,12.35Z"/>
    </clipPath>
    <clipPath id="clippath-8">
      <path class="cls-22" d="m551.93,31.21l4.83-2.8c7.91-4.6,18.87-3.95,30.97,3.03l-4.83,2.8c-12.1-6.98-23.06-7.63-30.97-3.03Z"/>
    </clipPath>
    <clipPath id="clippath-9">
      <path class="cls-22" d="m618.41,134.49l-4.83,2.8c7.81-4.54,12.65-14.19,12.69-27.91.08-27.62-19.34-61.27-43.38-75.14l4.83-2.8c24.03,13.88,43.45,47.52,43.38,75.14-.04,13.72-4.88,23.37-12.69,27.91Z"/>
    </clipPath>
    <clipPath id="clippath-10">
      <polygon class="cls-22" points="541.84 107.73 542.09 17.61 620.51 62.89 620.25 153 541.84 107.73"/>
    </clipPath>
    <clipPath id="clippath-11">
      <polygon class="cls-22" points="544.26 105.87 544.5 21.32 618.07 63.8 617.83 148.34 544.26 105.87"/>
    </clipPath>
    <clipPath id="clippath-12">
      <polygon class="cls-22" points="577.01 86.57 577.04 77.67 584.77 82.14 584.75 91.03 577.01 86.57"/>
    </clipPath>
    <clipPath id="clippath-13">
      <path class="cls-22" d="m524.93,139.67l2.83,1.64c-.25-.15-.6-.13-.98.1l-2.83-1.64c.38-.22.73-.24.98-.1Z"/>
    </clipPath>
    <clipPath id="clippath-14">
      <path class="cls-22" d="m490.53,176.83l-2.83-1.64c-.25-.14-.4-.45-.4-.89l2.83,1.64c0,.44.16.74.4.89Z"/>
    </clipPath>
    <clipPath id="clippath-15">
      <path class="cls-22" d="m490.1,164.18l-2.83-1.64c0-.88.61-1.96,1.38-2.4l2.83,1.64c-.77.44-1.38,1.52-1.38,2.4Z"/>
    </clipPath>
    <clipPath id="clippath-16">
      <polygon class="cls-22" points="492.63 173.92 492.6 163.7 525.91 144.47 525.94 154.69 492.63 173.92"/>
    </clipPath>
    <clipPath id="clippath-17">
      <path class="cls-22" d="m446.66,48.32l-.03,12.36c-1.87-1.08-4.91-1.08-6.76,0l.03-12.36c1.86-1.08,4.89-1.08,6.76,0Z"/>
    </clipPath>
    <clipPath id="clippath-18">
      <path class="cls-22" d="m434.85,64.73l.03-12.36c0-.7.46-1.41,1.39-1.94l-.03,12.36c-.92.54-1.39,1.24-1.39,1.94Z"/>
    </clipPath>
    <clipPath id="clippath-19">
      <path class="cls-22" d="m434.55,64.73l.03-12.36c0,.76.5,1.52,1.5,2.09l-.03,12.36c-1-.58-1.5-1.34-1.5-2.09Z"/>
    </clipPath>
    <clipPath id="clippath-20">
      <path class="cls-22" d="m446.91,56.57l-.03,12.36c-1.97,1.15-5.19,1.15-7.18,0l.03-12.36c1.99,1.15,5.21,1.15,7.18,0Z"/>
    </clipPath>
    <filter id="drop-shadow-3" filterUnits="userSpaceOnUse">
      <feOffset dx="5" dy="5"/>
      <feGaussianBlur result="blur-2" stdDeviation="3"/>
      <feFlood flood-color="#000" flood-opacity=".5"/>
      <feComposite in2="blur-2" operator="in"/>
      <feComposite in="SourceGraphic"/>
    </filter>
    <filter id="drop-shadow-4" filterUnits="userSpaceOnUse">
      <feOffset dx="5" dy="5"/>
      <feGaussianBlur result="blur-3" stdDeviation="3"/>
      <feFlood flood-color="#000" flood-opacity=".5"/>
      <feComposite in2="blur-3" operator="in"/>
      <feComposite in="SourceGraphic"/>
    </filter>
  </defs>
  <rect class="cls-54" x="-.5" width="1600" height="265"/>
  <text class="cls-16" transform="translate(705 169.83)"><tspan x="0" y="0">PLUG ‘N’ PLAY ECOMMERCE PLATFORM</tspan></text>
  <g>
    <g class="cls-167">
      <g class="cls-167">
        <g class="cls-21">
          <g class="cls-167">
            <path class="cls-121" d="m352.25,54.68l-3.41-1.98c.1-.06.2-.11.3-.15l3.41,1.98c-.1.04-.2.09-.3.15"/>
            <path class="cls-113" d="m352.55,54.53l-3.41-1.98c.09-.04.17-.07.25-.09l3.41,1.98c-.08.02-.17.05-.25.09"/>
            <path class="cls-40" d="m352.81,54.45l-3.41-1.98c.06-.02.13-.03.19-.04l3.41,1.98c-.06,0-.13.02-.19.04"/>
            <path class="cls-128" d="m353,54.41l-3.41-1.98c.05,0,.11-.01.16-.02l3.41,1.98c-.05,0-.11,0-.16.02"/>
            <path class="cls-132" d="m353.16,54.39l-3.41-1.98s.1,0,.14,0l3.41,1.98s-.09,0-.14,0"/>
            <path class="cls-131" d="m353.3,54.39l-3.41-1.98s.09,0,.13.02l3.41,1.98s-.09-.01-.13-.02"/>
            <path class="cls-29" d="m353.43,54.41l-3.41-1.98s.08.02.12.03l3.41,1.98s-.08-.02-.12-.03"/>
            <path class="cls-30" d="m353.56,54.43l-3.41-1.98s.08.02.11.04l3.41,1.98s-.08-.03-.11-.04"/>
            <path class="cls-117" d="m353.67,54.47l-3.41-1.98s.07.03.11.05l3.41,1.98s-.07-.04-.11-.05"/>
            <path class="cls-44" d="m353.78,54.53l-3.41-1.98s0,0,.01,0l3.41,1.98s0,0-.01,0"/>
          </g>
        </g>
      </g>
      <g class="cls-167">
        <g class="cls-146">
          <g class="cls-167">
            <path class="cls-25" d="m301.61,122.38l-3.41-1.98c-.39-.23-.63-.71-.63-1.39l3.41,1.98c0,.68.24,1.16.63,1.39"/>
          </g>
        </g>
      </g>
      <polygon class="cls-27" points="300.98 120.99 297.56 119.01 297.47 84.85 300.88 86.84 300.98 120.99"/>
      <polygon class="cls-46" points="303.04 83.1 299.63 81.12 348.84 52.7 352.25 54.68 303.04 83.1"/>
      <path class="cls-126" d="m352.25,54.68c1.19-.69,2.17-.13,2.17,1.24l.1,34.15c0,1.37-.96,3.05-2.16,3.74l-49.21,28.41c-1.19.69-2.17.13-2.17-1.24l-.1-34.15c0-1.37.96-3.05,2.16-3.74l49.21-28.41Z"/>
      <g class="cls-167">
        <g class="cls-149">
          <g class="cls-167">
            <path class="cls-25" d="m300.88,86.84l-3.41-1.98c0-.14,0-.28.03-.42l3.41,1.98c-.02.14-.03.28-.03.42"/>
            <path class="cls-26" d="m300.91,86.41l-3.41-1.98c.01-.1.03-.2.05-.3l3.41,1.98c-.02.1-.04.2-.05.3"/>
            <path class="cls-133" d="m300.96,86.11l-3.41-1.98c.02-.08.04-.17.06-.25l3.41,1.98c-.02.08-.04.17-.06.25"/>
            <path class="cls-134" d="m301.02,85.87l-3.41-1.98c.02-.07.04-.15.07-.22l3.41,1.98c-.02.07-.05.15-.07.22"/>
            <path class="cls-124" d="m301.09,85.65l-3.41-1.98c.02-.07.05-.14.07-.2l3.41,1.98c-.03.07-.05.14-.07.2"/>
            <path class="cls-44" d="m301.16,85.44l-3.41-1.98c.03-.07.05-.13.08-.19l3.41,1.98c-.03.06-.05.13-.08.19"/>
            <path class="cls-117" d="m301.24,85.25l-3.41-1.98c.03-.06.06-.13.09-.19l3.41,1.98c-.03.06-.06.13-.09.19"/>
            <path class="cls-30" d="m301.33,85.06l-3.41-1.98c.03-.06.06-.12.09-.18l3.41,1.98c-.03.06-.06.12-.09.18"/>
            <path class="cls-29" d="m301.42,84.87l-3.41-1.98c.03-.06.07-.12.1-.18l3.41,1.98c-.04.06-.07.12-.1.18"/>
            <path class="cls-131" d="m301.52,84.69l-3.41-1.98c.04-.06.07-.12.11-.18l3.41,1.98c-.04.06-.08.12-.11.18"/>
            <path class="cls-132" d="m301.64,84.51l-3.41-1.98c.04-.06.08-.13.13-.19l3.41,1.98c-.04.06-.08.12-.13.19"/>
            <path class="cls-128" d="m301.76,84.32l-3.41-1.98c.05-.07.09-.13.14-.2l3.41,1.98c-.05.06-.1.13-.14.2"/>
            <path class="cls-40" d="m301.91,84.12l-3.41-1.98c.06-.07.12-.14.18-.21l3.41,1.98c-.06.07-.12.14-.18.21"/>
            <path class="cls-113" d="m302.08,83.91l-3.41-1.98c.08-.09.16-.17.24-.25l3.41,1.98c-.08.08-.16.16-.24.25"/>
            <path class="cls-121" d="m302.32,83.66l-3.41-1.98c.23-.22.47-.41.72-.56l3.41,1.98c-.25.15-.5.34-.72.56"/>
          </g>
        </g>
      </g>
    </g>
    <polygon class="cls-37" points="354.07 59.6 300.53 90.21 300.53 97.76 354.07 66.16 354.07 59.6"/>
    <path class="cls-141" d="m341.8,93.47v-7.7c0-.5.27-.96.7-1.21l6.67-3.85c.57-.33,1.28.08,1.28.74v7.7c0,.5-.27.96-.7,1.21l-6.67,3.85c-.57.33-1.28-.08-1.28-.74Z"/>
    <polygon class="cls-18" points="303.34 117.43 330.3 101.97 330.3 99.8 303.34 115.03 303.34 117.43"/>
    <polygon class="cls-18" points="303.34 113.12 330.3 97.66 330.3 95.49 303.34 110.72 303.34 113.12"/>
    <line class="cls-20" x1="312.44" y1="94.01" x2="347.05" y2="74.03"/>
  </g>
  <g>
    <g class="cls-167">
      <g class="cls-167">
        <g class="cls-148">
          <g class="cls-167">
            <path class="cls-88" d="m316.72,103.65l-3.41-1.98c.1-.06.2-.11.3-.15l3.41,1.98c-.1.04-.2.09-.3.15"/>
            <path class="cls-94" d="m317.02,103.5l-3.41-1.98c.09-.04.17-.07.25-.09l3.41,1.98c-.08.02-.17.05-.25.09"/>
            <path class="cls-104" d="m317.27,103.41l-3.41-1.98c.06-.02.13-.03.19-.04l3.41,1.98c-.06,0-.13.02-.19.04"/>
            <path class="cls-118" d="m317.47,103.37l-3.41-1.98c.05,0,.11-.01.16-.02l3.41,1.98c-.05,0-.11,0-.16.02"/>
            <path class="cls-109" d="m317.63,103.36l-3.41-1.98s.1,0,.14,0l3.41,1.98s-.09,0-.14,0"/>
            <path class="cls-105" d="m317.77,103.36l-3.41-1.98s.09,0,.13.02l3.41,1.98s-.09-.01-.13-.02"/>
            <path class="cls-106" d="m317.9,103.37l-3.41-1.98s.08.02.12.03l3.41,1.98s-.08-.02-.12-.03"/>
            <path class="cls-103" d="m318.02,103.4l-3.41-1.98s.08.02.11.04l3.41,1.98s-.08-.03-.11-.04"/>
            <path class="cls-112" d="m318.14,103.44l-3.41-1.98s.07.03.11.05l3.41,1.98s-.07-.04-.11-.05"/>
            <path class="cls-110" d="m318.25,103.49l-3.41-1.98s0,0,.01,0l3.41,1.98s0,0-.01,0"/>
          </g>
        </g>
      </g>
      <g class="cls-167">
        <g class="cls-147">
          <g class="cls-167">
            <path class="cls-31" d="m233.09,214.59l-3.41-1.98c-.39-.23-.63-.71-.63-1.39l3.41,1.98c0,.68.24,1.16.63,1.39"/>
          </g>
        </g>
      </g>
      <polygon class="cls-129" points="232.45 213.2 229.04 211.22 228.88 152.91 232.29 154.89 232.45 213.2"/>
      <polygon class="cls-92" points="234.45 151.15 231.03 149.17 313.31 101.67 316.72 103.65 234.45 151.15"/>
      <path class="cls-115" d="m316.72,103.65c1.19-.69,2.17-.13,2.17,1.24l.16,58.31c0,1.37-.96,3.05-2.16,3.74l-82.27,47.5c-1.19.69-2.17.13-2.17-1.24l-.16-58.31c0-1.37.96-3.05,2.16-3.74l82.27-47.5Z"/>
      <g class="cls-167">
        <g class="cls-153">
          <g class="cls-167">
            <path class="cls-31" d="m232.29,154.89l-3.41-1.98c0-.14,0-.28.03-.42l3.41,1.98c-.02.14-.03.28-.03.42"/>
            <path class="cls-39" d="m232.32,154.47l-3.41-1.98c.01-.1.03-.2.05-.3l3.41,1.98c-.02.1-.04.2-.05.3"/>
            <path class="cls-120" d="m232.37,154.17l-3.41-1.98c.02-.08.04-.17.06-.25l3.41,1.98c-.02.08-.04.17-.06.25"/>
            <path class="cls-127" d="m232.43,153.92l-3.41-1.98c.02-.07.04-.15.07-.22l3.41,1.98c-.02.07-.05.15-.07.22"/>
            <path class="cls-123" d="m232.5,153.7l-3.41-1.98c.02-.07.05-.14.07-.2l3.41,1.98c-.03.07-.05.14-.07.2"/>
            <path class="cls-110" d="m232.57,153.5l-3.41-1.98c.03-.07.05-.13.08-.19l3.41,1.98c-.03.06-.05.13-.08.19"/>
            <path class="cls-112" d="m232.65,153.3l-3.41-1.98c.03-.06.06-.13.09-.19l3.41,1.98c-.03.06-.06.13-.09.19"/>
            <path class="cls-103" d="m232.74,153.11l-3.41-1.98c.03-.06.06-.12.09-.18l3.41,1.98c-.03.06-.06.12-.09.18"/>
            <path class="cls-106" d="m232.83,152.93l-3.41-1.98c.03-.06.07-.12.1-.18l3.41,1.98c-.04.06-.07.12-.1.18"/>
            <path class="cls-105" d="m232.93,152.75l-3.41-1.98c.04-.06.07-.12.11-.18l3.41,1.98c-.04.06-.08.12-.11.18"/>
            <path class="cls-109" d="m233.04,152.56l-3.41-1.98c.04-.06.08-.13.13-.19l3.41,1.98c-.04.06-.08.12-.13.19"/>
            <path class="cls-118" d="m233.17,152.38l-3.41-1.98c.05-.07.09-.13.14-.2l3.41,1.98c-.05.06-.1.13-.14.2"/>
            <path class="cls-104" d="m233.31,152.18l-3.41-1.98c.06-.07.12-.14.18-.21l3.41,1.98c-.06.07-.12.14-.18.21"/>
            <path class="cls-94" d="m233.49,151.97l-3.41-1.98c.08-.09.16-.17.24-.25l3.41,1.98c-.08.08-.16.16-.24.25"/>
            <path class="cls-88" d="m233.72,151.71l-3.41-1.98c.23-.22.47-.41.72-.56l3.41,1.98c-.25.15-.5.34-.72.56"/>
          </g>
        </g>
      </g>
    </g>
    <polygon class="cls-77" points="319.38 117.81 232.77 167.33 232.77 179.54 319.38 128.43 319.38 117.81"/>
    <polygon class="cls-18" points="237.33 206.52 262.69 192.05 262.69 188.54 237.33 202.64 237.33 206.52"/>
    <polygon class="cls-18" points="237.33 199.55 262.69 185.07 262.69 178.01 237.33 192.11 237.33 199.55"/>
    <polygon class="cls-18" points="267.52 190.12 292.88 175.65 292.88 172.13 267.52 186.24 267.52 190.12"/>
    <polygon class="cls-18" points="267.52 183.15 292.88 168.67 292.88 161.61 267.52 175.71 267.52 183.15"/>
    <polygon class="cls-18" points="261.72 142.83 261.72 146.63 271.78 140.81 271.78 137.06 261.72 142.83"/>
    <polygon class="cls-18" points="250.01 149.41 250.01 153.29 259.77 147.66 259.77 143.81 250.01 149.41"/>
    <polygon class="cls-18" points="273.92 135.97 273.92 139.68 279.02 136.77 279.02 133.1 273.92 135.97"/>
    <polygon class="cls-18" points="281.49 131.89 281.49 135.53 286.05 132.93 286.05 129.33 281.49 131.89"/>
    <path class="cls-139" d="m300.43,167.9v-13.76c0-.61.32-1.17.85-1.47l11.92-6.88c.55-.31,1.23.08,1.23.71v13.76c0,.61-.32,1.17-.85,1.47l-11.92,6.88c-.55.31-1.23-.08-1.23-.71Z"/>
  </g>
  <g>
    <g class="cls-167">
      <polygon class="cls-67" points="620.97 242.18 614.75 238.56 608.9 231.46 615.12 235.08 620.97 242.18"/>
      <g class="cls-167">
        <g class="cls-152">
          <g class="cls-167">
            <path class="cls-81" d="m620.82,188.46l-6.22-3.61c.92-.53,1.82-.98,2.7-1.34l6.22,3.61c-.88.37-1.78.81-2.7,1.34"/>
            <path class="cls-82" d="m623.52,187.12l-6.22-3.61c.77-.32,1.53-.58,2.27-.78l6.22,3.61c-.74.2-1.5.46-2.27.78"/>
            <path class="cls-62" d="m625.79,186.34l-6.22-3.61c.58-.16,1.14-.28,1.7-.36l6.22,3.61c-.55.09-1.12.21-1.7.36"/>
            <path class="cls-65" d="m627.48,185.98l-6.22-3.61c.49-.08.97-.12,1.44-.14l6.22,3.61c-.47.02-.95.07-1.44.14"/>
            <path class="cls-69" d="m628.92,185.83l-6.22-3.61c.43-.02.86-.02,1.27.01l6.22,3.61c-.42-.03-.84-.03-1.27-.01"/>
            <path class="cls-63" d="m630.19,185.84l-6.22-3.61c.4.02.78.07,1.16.14l6.22,3.61c-.38-.07-.77-.11-1.16-.14"/>
            <path class="cls-64" d="m631.36,185.98l-6.22-3.61c.37.06.73.15,1.08.25l6.22,3.61c-.35-.1-.71-.19-1.08-.25"/>
            <path class="cls-57" d="m632.44,186.23l-6.22-3.61c.35.1.69.22,1.02.36l6.22,3.61c-.33-.14-.67-.26-1.02-.36"/>
            <path class="cls-58" d="m633.45,186.59l-6.22-3.61c.33.14.66.3.97.47l6.22,3.61c-.31-.18-.63-.33-.97-.47"/>
            <path class="cls-55" d="m634.42,187.06l-6.22-3.61s.07.04.11.06l6.22,3.61s-.07-.04-.11-.06"/>
          </g>
        </g>
      </g>
      <path class="cls-61" d="m620.82,188.46c10.64-6.15,19.3-1.21,19.33,11.02.03,9.24-4.88,20-11.88,27.36l-7.3,15.34-5.85-7.1c-7.8,1.66-13.48-3.45-13.51-13.34-.03-12.23,8.56-27.12,19.21-33.27Z"/>
      <g class="cls-167">
        <g class="cls-150">
          <g class="cls-167">
            <path class="cls-66" d="m607.23,234.09l-6.22-3.61c-3.46-2.01-5.6-6.28-5.62-12.35,0-1.23.08-2.49.25-3.77l6.22,3.61c-.17,1.28-.25,2.54-.25,3.77.02,6.07,2.16,10.34,5.62,12.35"/>
            <path class="cls-74" d="m601.86,217.96l-6.22-3.61c.11-.88.27-1.78.46-2.67l6.22,3.61c-.19.9-.34,1.79-.46,2.67"/>
            <path class="cls-72" d="m602.31,215.29l-6.22-3.61c.16-.74.34-1.47.54-2.21l6.22,3.61c-.2.74-.39,1.48-.54,2.21"/>
            <path class="cls-56" d="m602.86,213.08l-6.22-3.61c.18-.65.38-1.31.6-1.96l6.22,3.61c-.22.65-.42,1.31-.6,1.96"/>
            <path class="cls-59" d="m603.46,211.11l-6.22-3.61c.2-.61.42-1.21.65-1.82l6.22,3.61c-.23.6-.45,1.21-.65,1.82"/>
            <path class="cls-55" d="m604.11,209.29l-6.22-3.61c.22-.58.46-1.16.71-1.73l6.22,3.61c-.25.57-.48,1.15-.71,1.73"/>
            <path class="cls-58" d="m604.82,207.57l-6.22-3.61c.24-.56.5-1.12.77-1.67l6.22,3.61c-.27.55-.52,1.11-.77,1.67"/>
            <path class="cls-57" d="m605.58,205.89l-6.22-3.61c.27-.55.54-1.1.83-1.64l6.22,3.61c-.29.54-.56,1.09-.83,1.64"/>
            <path class="cls-64" d="m606.41,204.26l-6.22-3.61c.29-.55.59-1.09.9-1.62l6.22,3.61c-.31.54-.61,1.08-.9,1.62"/>
            <path class="cls-63" d="m607.31,202.63l-6.22-3.61c.32-.55.65-1.09,1-1.63l6.22,3.61c-.34.54-.67,1.08-1,1.63"/>
            <path class="cls-69" d="m608.31,201l-6.22-3.61c.36-.56.73-1.12,1.12-1.67l6.22,3.61c-.38.55-.75,1.1-1.12,1.67"/>
            <path class="cls-65" d="m609.43,199.34l-6.22-3.61c.41-.59.84-1.17,1.28-1.74l6.22,3.61c-.44.57-.87,1.15-1.28,1.74"/>
            <path class="cls-62" d="m610.71,197.6l-6.22-3.61c.51-.65,1.03-1.29,1.56-1.9l6.22,3.61c-.54.62-1.06,1.25-1.56,1.9"/>
            <path class="cls-82" d="m612.27,195.7l-6.22-3.61c.68-.78,1.38-1.53,2.1-2.24l6.22,3.61c-.72.71-1.43,1.46-2.1,2.24"/>
            <path class="cls-81" d="m614.37,193.45l-6.22-3.61c2.01-1.98,4.18-3.68,6.44-4.99l6.22,3.61c-2.26,1.31-4.43,3-6.44,4.99"/>
          </g>
        </g>
      </g>
    </g>
    <path class="cls-18" d="m610.22,206.36v-1.49c0-.54.29-1.05.75-1.33l19.01-11.36c1.03-.62,2.34.13,2.34,1.33v1.88c0,.55-.29,1.06-.77,1.34l-19.01,10.97c-1.03.59-2.32-.15-2.32-1.34Z"/>
    <path class="cls-18" d="m610.22,214.78v-1.49c0-.54.29-1.05.75-1.33l19.01-11.36c1.03-.62,2.34.13,2.34,1.33v1.88c0,.55-.29,1.06-.77,1.34l-19.01,10.97c-1.03.59-2.32-.15-2.32-1.34Z"/>
    <path class="cls-18" d="m610.22,223.21v-1.49c0-.54.29-1.05.75-1.33l19.01-11.36c1.03-.62,2.34.13,2.34,1.33v1.88c0,.55-.29,1.06-.77,1.34l-19.01,10.97c-1.03.59-2.32-.15-2.32-1.34Z"/>
  </g>
  <g>
    <g class="cls-167">
      <g class="cls-167">
        <g class="cls-151">
          <g class="cls-167">
            <path class="cls-28" d="m551.93,31.21l4.83-2.8c1.12-.65,2.29-1.19,3.52-1.63l-4.83,2.8c-1.23.44-2.41.98-3.52,1.63"/>
            <path class="cls-130" d="m555.46,29.58l4.83-2.8c.98-.35,1.99-.63,3.04-.84l-4.83,2.8c-1.05.21-2.06.49-3.04.84"/>
            <path class="cls-53" d="m558.5,28.74l4.83-2.8c.82-.16,1.65-.29,2.51-.36l-4.83,2.8c-.85.08-1.69.2-2.51.36"/>
            <path class="cls-129" d="m561.01,28.38l4.83-2.8c.74-.07,1.49-.1,2.26-.11l-4.83,2.8c-.77,0-1.52.04-2.26.11"/>
            <path class="cls-114" d="m563.26,28.27l4.83-2.8c.67,0,1.35.02,2.04.07l-4.83,2.8c-.69-.05-1.37-.07-2.04-.07"/>
            <path class="cls-116" d="m565.31,28.34l4.83-2.8c.64.04,1.28.11,1.94.2l-4.83,2.8c-.65-.09-1.3-.15-1.94-.2"/>
            <path class="cls-47" d="m567.24,28.53l4.83-2.8c.63.08,1.26.19,1.91.31l-4.83,2.8c-.64-.13-1.28-.23-1.91-.31"/>
            <path class="cls-43" d="m569.15,28.85l4.83-2.8c.59.11,1.18.25,1.78.4l-4.83,2.8c-.6-.15-1.19-.28-1.78-.4"/>
            <path class="cls-111" d="m570.93,29.24l4.83-2.8c.59.15,1.19.31,1.8.5l-4.83,2.8c-.6-.18-1.2-.35-1.8-.5"/>
            <path class="cls-45" d="m572.73,29.74l4.83-2.8c.58.17,1.16.36,1.74.57l-4.83,2.8c-.59-.21-1.17-.4-1.74-.57"/>
            <path class="cls-107" d="m574.47,30.31l4.83-2.8c.58.2,1.17.42,1.76.66l-4.83,2.8c-.59-.24-1.18-.46-1.76-.66"/>
            <path class="cls-93" d="m576.23,30.97l4.83-2.8c.58.23,1.16.48,1.74.74l-4.83,2.8c-.58-.26-1.16-.51-1.74-.74"/>
            <path class="cls-105" d="m577.97,31.71l4.83-2.8c.58.26,1.17.54,1.76.83l-4.83,2.8c-.59-.29-1.18-.57-1.76-.83"/>
            <path class="cls-108" d="m579.74,32.54l4.83-2.8c.59.29,1.19.6,1.78.92l-4.83,2.8c-.6-.32-1.19-.63-1.78-.92"/>
            <path class="cls-122" d="m581.52,33.46l4.83-2.8c.46.25.92.51,1.38.77l-4.83,2.8c-.46-.27-.92-.53-1.38-.77"/>
          </g>
        </g>
      </g>
      <path class="cls-125" d="m582.9,34.24c24.03,13.88,43.45,47.52,43.38,75.14-.08,27.62-19.63,38.76-43.66,24.88-24.04-13.88-43.46-47.51-43.38-75.14.08-27.62,19.63-38.76,43.66-24.88Z"/>
      <g class="cls-167">
        <g class="cls-154">
          <g class="cls-167">
            <path class="cls-122" d="m582.9,34.24l4.83-2.8c.14.08.28.17.43.25l-4.83,2.8c-.14-.08-.28-.17-.43-.25"/>
            <path class="cls-101" d="m583.33,34.49l4.83-2.8c.62.36,1.23.74,1.84,1.13l-4.83,2.8c-.61-.39-1.22-.76-1.84-1.13"/>
            <path class="cls-115" d="m585.17,35.62l4.83-2.8c.62.39,1.24.8,1.85,1.22l-4.83,2.8c-.61-.42-1.23-.83-1.85-1.22"/>
            <path class="cls-85" d="m587.02,36.84l4.83-2.8c.63.44,1.27.88,1.89,1.34l-4.83,2.8c-.63-.46-1.26-.91-1.89-1.34"/>
            <path class="cls-89" d="m588.91,38.18l4.83-2.8c.64.47,1.28.96,1.91,1.46l-4.83,2.8c-.63-.5-1.27-.98-1.91-1.46"/>
            <path class="cls-87" d="m590.82,39.64l4.83-2.8c.65.51,1.3,1.04,1.94,1.58l-4.83,2.8c-.64-.54-1.29-1.07-1.94-1.58"/>
            <path class="cls-97" d="m592.76,41.22l4.83-2.8c.65.55,1.3,1.11,1.93,1.69l-4.83,2.8c-.64-.58-1.28-1.14-1.93-1.69"/>
            <path class="cls-102" d="m594.69,42.91l4.83-2.8c.64.58,1.28,1.17,1.91,1.78l-4.83,2.8c-.63-.61-1.27-1.2-1.91-1.78"/>
            <path class="cls-96" d="m596.6,44.69l4.83-2.8c.62.59,1.23,1.2,1.84,1.81l-4.83,2.8c-.61-.62-1.22-1.22-1.84-1.81"/>
            <path class="cls-135" d="m598.44,46.5l4.83-2.8c.6.61,1.19,1.23,1.78,1.87l-4.83,2.8c-.59-.63-1.18-1.26-1.78-1.87"/>
            <path class="cls-144" d="m600.22,48.37l4.83-2.8c.57.62,1.14,1.24,1.69,1.88l-4.83,2.8c-.56-.64-1.12-1.26-1.69-1.88"/>
            <path class="cls-142" d="m601.91,50.24l4.83-2.8c.57.65,1.13,1.3,1.68,1.97l-4.83,2.8c-.55-.67-1.11-1.32-1.68-1.97"/>
            <path class="cls-143" d="m603.59,52.21l4.83-2.8c.57.68,1.13,1.37,1.68,2.07l-4.83,2.8c-.55-.7-1.11-1.39-1.68-2.07"/>
            <path class="cls-140" d="m605.27,54.29l4.83-2.8c.66.83,1.3,1.68,1.93,2.54l-4.83,2.8c-.63-.86-1.28-1.71-1.93-2.54"/>
            <path class="cls-136" d="m607.21,56.82l4.83-2.8c.95,1.28,1.87,2.59,2.76,3.93l-4.83,2.8c-.89-1.33-1.81-2.64-2.76-3.93"/>
            <path class="cls-137" d="m609.96,60.75l4.83-2.8c1.12,1.68,2.2,3.4,3.23,5.14l-4.83,2.8c-1.03-1.75-2.1-3.46-3.23-5.14"/>
            <path class="cls-136" d="m613.19,65.89l4.83-2.8c.74,1.26,1.46,2.54,2.15,3.82l-4.83,2.8c-.69-1.29-1.4-2.56-2.15-3.82"/>
            <path class="cls-140" d="m615.34,69.72l4.83-2.8c.46.87.91,1.74,1.35,2.61l-4.83,2.8c-.44-.88-.89-1.75-1.35-2.61"/>
            <path class="cls-143" d="m616.68,72.33l4.83-2.8c.38.76.75,1.53,1.11,2.3l-4.83,2.8c-.36-.77-.73-1.54-1.11-2.3"/>
            <path class="cls-142" d="m617.8,74.63l4.83-2.8c.33.7.65,1.4.96,2.1l-4.83,2.8c-.31-.7-.63-1.4-.96-2.1"/>
            <path class="cls-144" d="m618.75,76.73l4.83-2.8c.3.69.6,1.38.89,2.07l-4.83,2.8c-.29-.69-.58-1.39-.89-2.07"/>
            <path class="cls-135" d="m619.64,78.8l4.83-2.8c.29.7.58,1.41.85,2.11l-4.83,2.8c-.27-.71-.56-1.41-.85-2.11"/>
            <path class="cls-96" d="m620.49,80.92l4.83-2.8c.28.71.54,1.42.8,2.13l-4.83,2.8c-.26-.71-.52-1.42-.8-2.13"/>
            <path class="cls-102" d="m621.29,83.05l4.83-2.8c.27.74.53,1.48.77,2.22l-4.83,2.8c-.25-.74-.51-1.48-.77-2.22"/>
            <path class="cls-97" d="m622.07,85.27l4.83-2.8c.25.75.49,1.5.72,2.25l-4.83,2.8c-.23-.75-.47-1.5-.72-2.25"/>
            <path class="cls-87" d="m622.79,87.52l4.83-2.8c.23.77.46,1.53.67,2.3l-4.83,2.8c-.21-.77-.44-1.53-.67-2.3"/>
            <path class="cls-89" d="m623.46,89.82l4.83-2.8c.21.77.42,1.54.61,2.31l-4.83,2.8c-.19-.77-.39-1.54-.61-2.31"/>
            <path class="cls-85" d="m624.07,92.13l4.83-2.8c.19.76.37,1.52.53,2.28l-4.83,2.8c-.17-.76-.34-1.52-.53-2.28"/>
            <path class="cls-115" d="m624.6,94.41l4.83-2.8c.17.76.32,1.51.46,2.27l-4.83,2.8c-.14-.76-.3-1.51-.46-2.27"/>
            <path class="cls-101" d="m625.06,96.68l4.83-2.8c.14.73.26,1.47.38,2.2l-4.83,2.8c-.12-.73-.24-1.47-.38-2.2"/>
            <path class="cls-122" d="m625.44,98.88l4.83-2.8c.12.73.22,1.46.31,2.19l-4.83,2.8c-.09-.73-.2-1.46-.31-2.19"/>
            <path class="cls-108" d="m625.75,101.07l4.83-2.8c.09.71.17,1.42.24,2.13l-4.83,2.8c-.07-.71-.15-1.42-.24-2.13"/>
            <path class="cls-105" d="m625.99,103.2l4.83-2.8c.07.71.12,1.41.17,2.12l-4.83,2.8c-.04-.7-.1-1.41-.17-2.12"/>
            <path class="cls-93" d="m626.16,105.31l4.83-2.8c.04.7.08,1.41.1,2.11l-4.83,2.8c-.02-.7-.05-1.4-.1-2.11"/>
            <path class="cls-107" d="m626.25,107.42l4.83-2.8c.02.66.03,1.31.03,1.96,0,.04,0,.08,0,.13l-4.83,2.8s0-.08,0-.13c0-.65,0-1.3-.03-1.96"/>
            <path class="cls-45" d="m626.28,109.51l4.83-2.8c0,.71-.02,1.41-.05,2.1l-4.83,2.8c.03-.69.05-1.39.05-2.1"/>
            <path class="cls-111" d="m626.23,111.61l4.83-2.8c-.03.7-.07,1.38-.13,2.05l-4.83,2.8c.06-.67.1-1.36.13-2.05"/>
            <path class="cls-43" d="m626.1,113.67l4.83-2.8c-.06.71-.13,1.41-.22,2.1l-4.83,2.8c.09-.69.16-1.38.22-2.1"/>
            <path class="cls-47" d="m625.89,115.76l4.83-2.8c-.09.71-.19,1.4-.31,2.08l-4.83,2.8c.12-.68.22-1.37.31-2.08"/>
            <path class="cls-116" d="m625.58,117.84l4.83-2.8c-.13.73-.27,1.44-.43,2.13l-4.83,2.8c.16-.69.3-1.4.43-2.13"/>
            <path class="cls-114" d="m625.15,119.97l4.83-2.8c-.17.76-.37,1.5-.58,2.22l-4.83,2.8c.21-.72.41-1.46.58-2.22"/>
            <path class="cls-129" d="m624.57,122.19l4.83-2.8c-.23.79-.49,1.55-.76,2.29l-4.83,2.8c.28-.74.53-1.5.76-2.29"/>
            <path class="cls-53" d="m623.81,124.48l4.83-2.8c-.32.86-.67,1.68-1.04,2.47l-4.83,2.8c.38-.79.72-1.62,1.04-2.47"/>
            <path class="cls-130" d="m622.77,126.96l4.83-2.8c-.5,1.05-1.05,2.04-1.64,2.98l-4.83,2.8c.59-.93,1.14-1.93,1.64-2.98"/>
            <path class="cls-28" d="m621.12,129.93l4.83-2.8c-2.01,3.16-4.56,5.63-7.54,7.36l-4.83,2.8c2.98-1.73,5.52-4.2,7.54-7.36"/>
          </g>
        </g>
      </g>
    </g>
    <g class="cls-167">
      <g class="cls-159">
        <path class="cls-18" d="m581.3,40.25c-21.66-12.5-39.26-2.47-39.33,22.42s17.42,55.19,39.08,67.69c21.66,12.5,39.26,2.47,39.33-22.42s-17.42-55.19-39.08-67.69"/>
      </g>
    </g>
    <g class="cls-167">
      <g class="cls-164">
        <g>
          <path class="cls-73" d="m583.28,43.71l-3.99-2.3c-.59-.34-1.07-.07-1.07.62l-.03,10.14c0,.67.48,1.5,1.06,1.84l1.03.6v-.94c0-.62.43-.86.97-.55s.96,1.05.96,1.66v.94s1.03.59,1.03.59c.59.34,1.07.07,1.08-.61l.03-10.14c0-.68-.48-1.51-1.07-1.85"/>
          <path class="cls-73" d="m565.15,37.6c-.18-.1-.37-.16-.53-.14l-3.47.3c-.51.04-.69.69-.39,1.45l4.39,11.33c.2.51.56.93.93,1.15.18.11.37.16.54.14l3.46-.29c.51-.05.69-.7.39-1.46l-4.39-11.33c-.2-.51-.55-.93-.92-1.14"/>
          <path class="cls-73" d="m551.31,43.82c-.37-.21-.73-.2-.94.08l-2,2.82c-.3.42-.13,1.27.38,1.9l7.63,9.48c.17.21.35.37.53.48.37.21.73.2.93-.08l2-2.82c.3-.42.13-1.27-.38-1.9l-7.63-9.48c-.17-.21-.35-.36-.53-.47"/>
          <path class="cls-73" d="m554.29,65.78l-8.83-5.1c-.59-.34-1.07-.07-1.07.61v4.59c-.01.68.46,1.51,1.05,1.85l8.83,5.1c.59.34,1.07.07,1.07-.62v-4.59c.01-.67-.46-1.5-1.05-1.84"/>
          <path class="cls-73" d="m556.85,83.05c-.18-.1-.37-.16-.53-.14l-7.66.66c-.51.04-.69.69-.39,1.45l1.98,5.12c.2.51.56.94.93,1.16.18.1.36.16.53.14l7.66-.66c.51-.05.69-.7.39-1.46l-1.98-5.12c-.2-.51-.56-.94-.93-1.15"/>
          <path class="cls-73" d="m565.93,100.46c-.37-.21-.73-.2-.93.08l-4.44,6.23c-.3.42-.13,1.27.38,1.9l3.45,4.29c.17.21.35.37.53.47.37.21.73.2.92-.08l4.44-6.23c.3-.42.13-1.27-.38-1.91l-3.45-4.28c-.17-.21-.35-.37-.53-.47"/>
          <path class="cls-73" d="m583.08,115.66l-3.99-2.3c-.59-.34-1.07-.07-1.07.61l-.03,10.14c0,.68.48,1.51,1.06,1.85l3.99,2.3c.59.34,1.07.07,1.08-.61l.03-10.14c0-.67-.48-1.5-1.07-1.84"/>
          <path class="cls-73" d="m596.28,117.99c-.18-.1-.37-.16-.53-.14l-3.46.29c-.51.05-.69.7-.39,1.46l4.39,11.33c.2.51.55.93.92,1.14.18.1.37.16.53.14l3.46-.29c.51-.05.69-.7.4-1.45l-4.39-11.33c-.2-.51-.55-.93-.92-1.14"/>
          <path class="cls-73" d="m605.42,111.1c-.37-.21-.73-.2-.93.08l-2,2.82c-.3.42-.13,1.27.38,1.91l7.63,9.48c.17.21.35.36.53.47.37.21.73.2.93-.08l2.01-2.82c.3-.42.13-1.27-.38-1.9l-7.63-9.48c-.17-.21-.35-.37-.53-.48"/>
          <path class="cls-73" d="m616.9,101.93l-8.82-5.09c-.59-.34-1.07-.07-1.07.62v4.59c-.01.67.46,1.5,1.05,1.84l8.82,5.09c.59.34,1.07.07,1.07-.62v-4.59c.01-.67-.46-1.5-1.05-1.84"/>
          <path class="cls-73" d="m611.17,78.38c-.18-.1-.36-.16-.53-.14l-7.66.66c-.51.05-.69.7-.39,1.46l1.98,5.12c.2.51.56.94.93,1.15.18.11.37.16.54.14l7.66-.66c.51-.04.69-.69.39-1.45l-1.99-5.12c-.2-.51-.56-.94-.93-1.15"/>
          <path class="cls-73" d="m597.41,56.23c-.37-.21-.73-.2-.92.08l-4.44,6.23c-.3.41-.13,1.27.38,1.91l3.45,4.28c.17.21.35.37.53.47.37.21.73.2.92-.08l4.44-6.23c.3-.42.12-1.27-.39-1.9l-3.45-4.29c-.17-.21-.35-.37-.53-.47"/>
          <path class="cls-76" d="m581.26,53.11c-.54-.31-.97-.07-.97.55v.94s-.09,31.45-.09,31.45l11.4.17c.49,0,.69-.54.45-1.22-.17-.49-.52-.92-.87-1.13-.14-.08-.28-.13-.41-.13l-8.62-.13.08-27.9v-.94c0-.62-.43-1.36-.96-1.66"/>
        </g>
      </g>
    </g>
    <g class="cls-167">
      <g class="cls-158">
        <path class="cls-76" d="m580.91,79.91c-2.13-1.23-3.87-.25-3.88,2.21s1.72,5.45,3.86,6.68,3.87.25,3.88-2.21-1.72-5.45-3.86-6.68"/>
      </g>
    </g>
  </g>
  <g>
    <path class="cls-79" d="m567.9,154.55h0c.78-.46,1.98-.52,2.66-.12l4.79,2.75c.68.39.6,1.09-.18,1.55h0c-.78.46-1.98.52-2.66.12l-4.79-2.75c-.68-.39-.6-1.09.18-1.55Z"/>
    <path class="cls-79" d="m546.61,142.35h0c.78-.46,1.98-.52,2.66-.12l10.74,6.15c.68.39.6,1.09-.18,1.55h0c-.78.46-1.98.52-2.66.12l-10.74-6.15c-.68-.39-.6-1.09.18-1.55Z"/>
    <path class="cls-79" d="m529.81,132.72h0c.78-.46,1.98-.52,2.66-.12l10.74,6.15c.68.39.6,1.09-.18,1.55h0c-.78.46-1.98.52-2.66.12l-10.74-6.15c-.68-.39-.6-1.09.18-1.55Z"/>
    <path class="cls-75" d="m589.71,182.01c0-.14,0-.29,0-.43,0-.14,0-.29,0-.43,0-.14,0-.29,0-.43,0-.14,0-.29,0-.43,0-.14,0-.29,0-.43,0-.14,0-.29,0-.43,0-.14,0-.29,0-.43,0-.14,0-.29,0-.43,0-.14,0-.29,0-.43,0-.14,0-.29,0-.43,0-.14,0-.29,0-.43,0-.14,0-.29,0-.43,0-.14,0-.29,0-.43,0-.14,0-.29,0-.43,0-.14,0-.29,0-.43,0-.14,0-.29,0-.43,0-.14,0-.29,0-.43,0-.14,0-.29,0-.43,0-.14,0-.29,0-.43,0-.14,0-.29,0-.43,0-.14,0-.29,0-.43,0-.14,0-.29,0-.43,0-.14,0-.29,0-.43,0-.14,0-.29,0-.43.12-3.06-1.66-5.99-5.4-8.13l-150.32-86.12c-4.67-2.68-11.41-3.54-18.03-2.73-4.65.57-9.23,1.97-12.98,4.18l-67.59,39.77c-5.02,2.95-7.55,6.74-7.48,10.32,0,.14,0,.29,0,.43,0,.14,0,.29,0,.43,0,.14,0,.29,0,.43,0,.14,0,.29,0,.43,0,.14,0,.29,0,.43,0,.14,0,.29,0,.43,0,.14,0,.29,0,.43,0,.14,0,.29,0,.43,0,.14,0,.29,0,.43,0,.14,0,.29,0,.43,0,.14,0,.29,0,.43,0,.14,0,.29,0,.43,0,.14,0,.29,0,.43,0,.14,0,.29,0,.43,0,.14,0,.29,0,.43,0,.14,0,.29,0,.43,0,.14,0,.29,0,.43,0,.14,0,.29,0,.43,0,.14,0,.29,0,.43,0,.14,0,.29,0,.43,0,.14,0,.29,0,.43,0,.14,0,.29,0,.43,0,.14,0,.29,0,.43,0,.14,0,.29,0,.43,0,.14,0,.29,0,.43-.12,3.06,1.66,5.99,5.4,8.14l150.32,86.12c2.06,1.18,4.54,2.01,7.22,2.5,7.66,1.4,17.05.02,23.79-3.94l67.59-39.77c5.02-2.95,7.55-6.74,7.48-10.32,0-.14,0-.29,0-.43Z"/>
    <path class="cls-79" d="m447.54,207.18h0c1.21-.71,3.06-.8,4.11-.19l16.59,9.5c1.06.6.93,1.68-.28,2.39h0c-1.21.71-3.06.8-4.11.19l-16.59-9.51c-1.06-.6-.93-1.68.28-2.39Z"/>
    <path class="cls-98" d="m580.99,163.83l-148.38-85.01c-3.02-1.73-6.94-2.66-11.11-2.84-6.31-.28-13.2,1.15-18.42,4.22l-65.83,38.73c-8.67,5.1-9.56,12.82-1.98,17.16l148.38,85.01c6.01,3.44,15.61,3.75,23.66,1.19,2.09-.67,4.09-1.52,5.88-2.57l65.83-38.73c8.67-5.1,9.56-12.82,1.98-17.16Z"/>
    <polyline class="cls-70" points="570.26 163.05 453.86 96.35 433.97 84.96 346.55 136.39"/>
    <polyline class="cls-84" points="346.55 136.39 453.87 197.88 482.84 214.48 570.26 163.05"/>
    <path class="cls-23" d="m527.29,198.86c-3.59-2.06-3.17-5.69.94-8.11,4.11-2.42,10.36-2.71,13.95-.65,3.59,2.06,3.17,5.69-.94,8.11-4.11,2.42-10.36,2.71-13.95.65Z"/>
  </g>
  <g>
    <g>
      <line class="cls-19" x1="498.63" y1="187.78" x2="498.63" y2="164.22"/>
      <line class="cls-19" x1="520.32" y1="174.93" x2="520.32" y2="151.37"/>
    </g>
    <g>
      <g class="cls-167">
        <g class="cls-167">
          <g class="cls-157">
            <g class="cls-167">
              <path class="cls-121" d="m526.77,141.4l-2.83-1.64c.07-.04.13-.07.19-.1l2.83,1.64c-.06.03-.13.06-.19.1"/>
              <path class="cls-113" d="m526.96,141.31l-2.83-1.64c.06-.02.11-.04.16-.06l2.83,1.64c-.05.01-.11.03-.16.06"/>
              <path class="cls-40" d="m527.13,141.25l-2.83-1.64s.08-.02.12-.03l2.83,1.64s-.08.01-.12.03"/>
              <path class="cls-128" d="m527.25,141.23l-2.83-1.64s.07,0,.1-.01l2.83,1.64s-.07,0-.1.01"/>
              <path class="cls-132" d="m527.35,141.22l-2.83-1.64s.06,0,.09,0l2.83,1.64s-.06,0-.09,0"/>
              <path class="cls-131" d="m527.44,141.22l-2.83-1.64s.06,0,.08,0l2.83,1.64s-.06,0-.08,0"/>
              <path class="cls-29" d="m527.53,141.23l-2.83-1.64s.05.01.08.02l2.83,1.64s-.05-.01-.08-.02"/>
              <path class="cls-30" d="m527.6,141.25l-2.83-1.64s.05.02.07.03l2.83,1.64s-.05-.02-.07-.03"/>
              <path class="cls-117" d="m527.68,141.27l-2.83-1.64s.05.02.07.03l2.83,1.64s-.05-.02-.07-.03"/>
              <polyline class="cls-44" points="527.75 141.31 524.92 139.66 524.93 139.67 527.75 141.31 527.75 141.31"/>
            </g>
          </g>
        </g>
        <g class="cls-167">
          <g class="cls-156">
            <g class="cls-167">
              <path class="cls-25" d="m490.53,176.83l-2.83-1.64c-.25-.14-.4-.45-.4-.89l2.83,1.64c0,.44.16.74.4.89"/>
            </g>
          </g>
        </g>
        <polygon class="cls-27" points="490.13 175.94 487.3 174.3 487.27 162.54 490.1 164.18 490.13 175.94"/>
        <polygon class="cls-46" points="491.48 161.78 488.65 160.14 523.94 139.76 526.77 141.4 491.48 161.78"/>
        <path class="cls-126" d="m526.77,141.4c.77-.44,1.39-.08,1.39.8l.03,11.76c0,.88-.61,1.95-1.38,2.39l-35.29,20.38c-.77.44-1.39.09-1.39-.79l-.03-11.76c0-.88.61-1.96,1.38-2.4l35.29-20.38Z"/>
        <g class="cls-167">
          <g class="cls-160">
            <g class="cls-167">
              <path class="cls-25" d="m490.1,164.18l-2.83-1.64c0-.09,0-.18.02-.27l2.83,1.64c-.01.09-.02.18-.02.27"/>
              <path class="cls-26" d="m490.11,163.91l-2.83-1.64c0-.06.02-.13.03-.19l2.83,1.64c-.01.06-.02.13-.03.19"/>
              <path class="cls-133" d="m490.15,163.72l-2.83-1.64c.01-.05.02-.11.04-.16l2.83,1.64c-.01.05-.03.11-.04.16"/>
              <path class="cls-134" d="m490.19,163.56l-2.83-1.64s.03-.09.04-.14l2.83,1.64s-.03.09-.04.14"/>
              <path class="cls-124" d="m490.23,163.41l-2.83-1.64s.03-.09.05-.13l2.83,1.64s-.03.09-.05.13"/>
              <path class="cls-44" d="m490.28,163.28l-2.83-1.64s.03-.08.05-.13l2.83,1.64s-.04.08-.05.13"/>
              <path class="cls-117" d="m490.33,163.16l-2.83-1.64s.04-.08.06-.12l2.83,1.64s-.04.08-.06.12"/>
              <path class="cls-30" d="m490.38,163.04l-2.83-1.64s.04-.08.06-.12l2.83,1.64s-.04.08-.06.12"/>
              <path class="cls-29" d="m490.44,162.92l-2.83-1.64s.04-.08.07-.12l2.83,1.64s-.04.08-.07.12"/>
              <path class="cls-131" d="m490.51,162.8l-2.83-1.64s.05-.08.07-.12l2.83,1.64s-.05.08-.07.12"/>
              <path class="cls-132" d="m490.58,162.68l-2.83-1.64s.05-.08.08-.12l2.83,1.64s-.05.08-.08.12"/>
              <path class="cls-128" d="m490.66,162.56l-2.83-1.64s.06-.08.09-.13l2.83,1.64s-.06.08-.09.13"/>
              <path class="cls-40" d="m490.75,162.44l-2.83-1.64s.07-.09.11-.14l2.83,1.64s-.08.09-.11.14"/>
              <path class="cls-113" d="m490.87,162.3l-2.83-1.64c.05-.06.1-.11.15-.16l2.83,1.64c-.05.05-.1.1-.15.16"/>
              <path class="cls-121" d="m491.02,162.14l-2.83-1.64c.14-.14.3-.26.46-.36l2.83,1.64c-.16.09-.32.21-.46.36"/>
            </g>
          </g>
        </g>
      </g>
      <g class="cls-167">
        <g class="cls-162">
          <g>
            <path class="cls-18" d="m493.98,171.58v-3.07s.6-.35.6-.35c.62-.36.88-.22.88.71v.87c0,.74-.24,1.12-.7,1.39l-.79.45m-.01-4.49v-2.63s.65-.38.65-.38c.49-.28.7-.09.7.63v.55c0,.8-.3,1.23-.81,1.53l-.54.31m.68-4.47l-2.06,1.19.03,9.98,2.15-1.24c1.36-.79,2.07-2.02,2.06-3.56v-.81c0-1.06-.29-1.64-1.02-1.53v-.03c.61-.68.88-1.48.88-2.5v-.36c0-1.54-.61-1.95-2.03-1.13"/>
            <path class="cls-18" d="m501.64,158.59l-1.29.74.02,7.7c0,.71-.27,1.13-.71,1.38s-.71.15-.71-.56l-.02-7.7-1.37.79.02,7.6c0,1.6.7,2.11,2.04,1.33s2.03-2.09,2.03-3.69l-.02-7.6"/>
            <polyline class="cls-18" points="506.93 155.54 505.63 156.29 504.62 161.43 504.59 161.45 503.55 157.49 502.12 158.32 503.86 164 503.87 167.3 505.24 166.51 505.23 163.21 506.93 155.54"/>
            <polyline class="cls-18" points="513.71 151.62 512.5 152.32 512.52 158.3 512.49 158.31 511.1 153.13 509.38 154.12 509.41 164.1 510.64 163.39 510.62 156.16 510.64 156.15 512.34 162.41 513.74 161.6 513.71 151.62"/>
            <path class="cls-18" d="m516.67,158.6c-.43.25-.7.13-.71-.58l-.02-5.39c0-.71.27-1.14.7-1.39s.71-.14.71.57l.02,5.39c0,.71-.27,1.14-.71,1.39m-.02-8.78c-1.33.77-2.07,2.1-2.06,3.7v5.19c.02,1.6.76,2.09,2.09,1.31s2.07-2.11,2.07-3.71v-5.19c-.02-1.6-.76-2.09-2.1-1.31"/>
            <polyline class="cls-18" points="525.91 144.58 524.71 145.27 524.04 153.6 524.01 153.62 523.32 146.08 522.01 146.83 521.38 155.08 521.36 155.09 520.62 147.63 519.29 148.4 520.29 157.82 522.16 156.74 522.63 151.15 522.66 151.13 523.15 156.17 524.97 155.12 525.91 144.58"/>
          </g>
        </g>
      </g>
    </g>
  </g>
  <g>
    <g class="cls-167">
      <polygon class="cls-100" points="513.26 136.2 443.49 176.74 375.62 137.55 445.39 97.01 513.26 136.2"/>
      <polygon class="cls-115" points="513.26 136.2 513.24 143.76 443.47 184.31 443.49 176.74 513.26 136.2"/>
      <polygon class="cls-41" points="443.49 176.74 443.47 184.31 375.6 145.12 375.62 137.55 443.49 176.74"/>
    </g>
    <g class="cls-167">
      <polygon class="cls-99" points="502.17 68.03 443.57 102.09 384.59 68.03 443.19 33.98 502.17 68.03"/>
      <polygon class="cls-95" points="502.17 68.03 501.98 136.54 443.38 170.6 443.57 102.09 502.17 68.03"/>
      <polygon class="cls-42" points="443.57 102.09 443.38 170.6 384.4 136.54 384.59 68.03 443.57 102.09"/>
    </g>
    <polygon class="cls-73" points="443.93 98.23 504.26 62.8 443.28 29.56 385.2 62.49 443.93 98.23"/>
    <g class="cls-167">
      <g class="cls-167">
        <g class="cls-161">
          <g class="cls-167">
            <path class="cls-83" d="m446.66,48.32l-.03,12.36c-.21-.12-.44-.23-.69-.33l.03-12.36c.24.1.47.2.69.33"/>
            <path class="cls-32" d="m445.97,47.99l-.03,12.36c-.19-.07-.38-.14-.58-.2l.03-12.36c.2.06.39.12.58.2"/>
            <path class="cls-38" d="m445.39,47.8l-.03,12.36c-.16-.05-.33-.09-.5-.12l.03-12.36c.17.03.34.08.5.12"/>
            <path class="cls-34" d="m444.9,47.68l-.03,12.36c-.16-.03-.31-.06-.47-.08l.03-12.36c.16.02.32.05.47.08"/>
            <path class="cls-36" d="m444.42,47.59l-.03,12.36c-.15-.02-.31-.04-.47-.05l.03-12.36c.16.01.31.03.47.05"/>
            <path class="cls-33" d="m443.96,47.54l-.03,12.36c-.16-.01-.31-.02-.47-.03l.03-12.36c.16,0,.32.01.47.03"/>
            <path class="cls-35" d="m443.48,47.52l-.03,12.36c-.16,0-.33,0-.49,0l.03-12.36c.16,0,.33,0,.49,0"/>
            <path class="cls-48" d="m442.99,47.52l-.03,12.36c-.18,0-.36.02-.53.04l.03-12.36c.18-.02.35-.03.53-.04"/>
            <path class="cls-119" d="m442.46,47.55l-.03,12.36c-.21.02-.41.05-.61.09l.03-12.36c.2-.04.41-.06.61-.09"/>
            <path class="cls-49" d="m441.85,47.64l-.03,12.36c-.31.06-.62.13-.91.23l.03-12.36c.29-.09.59-.17.91-.23"/>
            <path class="cls-51" d="m440.94,47.87l-.03,12.36c-.38.12-.73.28-1.05.46l.03-12.36c.32-.19.67-.34,1.05-.46"/>
          </g>
        </g>
      </g>
      <polygon class="cls-60" points="439.89 48.33 439.86 60.69 436.24 62.79 436.27 50.43 439.89 48.33"/>
      <polygon class="cls-52" points="453.7 52.39 453.66 64.75 446.62 60.68 446.66 48.32 453.7 52.39"/>
      <g class="cls-167">
        <g class="cls-165">
          <g class="cls-167">
            <path class="cls-51" d="m436.27,50.43l-.03,12.36s-.04.02-.06.03l.03-12.36s.04-.02.06-.03"/>
            <path class="cls-49" d="m436.21,50.47l-.03,12.36c-.23.14-.43.29-.6.45l.03-12.36c.17-.16.37-.31.6-.45"/>
            <path class="cls-119" d="m435.61,50.91l-.03,12.36c-.11.1-.21.21-.3.32l.03-12.36c.09-.11.18-.22.3-.32"/>
            <path class="cls-48" d="m435.31,51.23l-.03,12.36c-.07.09-.14.19-.19.29l.03-12.36c.05-.1.12-.19.19-.29"/>
            <path class="cls-35" d="m435.12,51.52l-.03,12.36c-.05.09-.09.18-.13.27l.03-12.36c.03-.09.08-.18.13-.27"/>
            <path class="cls-33" d="m434.99,51.79l-.03,12.36c-.03.09-.06.18-.08.27l.03-12.36c.02-.09.04-.18.08-.27"/>
            <path class="cls-36" d="m434.92,52.06l-.03,12.36c-.02.09-.03.18-.03.27l.03-12.36c0-.09.01-.18.03-.27"/>
            <path class="cls-34" d="m434.88,52.33l-.03,12.36s0,.03,0,.04l.03-12.36s0-.03,0-.04"/>
          </g>
        </g>
      </g>
      <g class="cls-167">
        <g class="cls-163">
          <g class="cls-167">
            <path class="cls-83" d="m436.08,54.47l-.03,12.36c-1-.58-1.5-1.34-1.5-2.09l.03-12.36c0,.76.5,1.52,1.5,2.09"/>
          </g>
        </g>
      </g>
      <polygon class="cls-60" points="454.11 52.39 454.07 64.75 446.87 68.93 446.91 56.57 454.11 52.39"/>
      <polygon class="cls-52" points="439.73 56.57 439.69 68.93 436.05 66.83 436.08 54.47 439.73 56.57"/>
      <path class="cls-50" d="m446.86,48.2l7.25,4.18-7.2,4.18c-1.97,1.15-5.19,1.15-7.18,0l-3.65-2.1c-1.99-1.15-2-3.01-.02-4.16l3.62-2.1c1.97-1.15,5.19-1.15,7.18,0Zm-.16,8.25l7-4.07-7.04-4.07c-1.87-1.08-4.91-1.08-6.76,0l-3.62,2.1c-1.86,1.08-1.85,2.83.02,3.91l3.65,2.1c1.87,1.08,4.91,1.08,6.76,0"/>
      <g class="cls-167">
        <g class="cls-155">
          <g class="cls-167">
            <path class="cls-51" d="m446.91,56.57l-.03,12.36c-.34.2-.71.36-1.11.49l.03-12.36c.4-.13.77-.29,1.11-.49"/>
            <path class="cls-49" d="m445.8,57.06l-.03,12.36c-.31.1-.63.18-.96.24l.03-12.36c.33-.06.65-.14.96-.24"/>
            <path class="cls-119" d="m444.84,57.3l-.03,12.36c-.21.04-.43.07-.65.09l.03-12.36c.22-.02.44-.05.65-.09"/>
            <path class="cls-48" d="m444.19,57.39l-.03,12.36c-.19.02-.38.03-.56.04l.03-12.36c.19,0,.38-.02.56-.04"/>
            <path class="cls-35" d="m443.62,57.43l-.03,12.36c-.17,0-.35,0-.52,0l.03-12.36c.17,0,.35,0,.52,0"/>
            <path class="cls-33" d="m443.1,57.43l-.03,12.36c-.17,0-.33-.01-.5-.03l.03-12.36c.17.01.33.02.5.03"/>
            <path class="cls-36" d="m442.6,57.4l-.03,12.36c-.17-.01-.33-.03-.49-.06l.03-12.36c.16.02.33.04.49.06"/>
            <path class="cls-34" d="m442.11,57.35l-.03,12.36c-.17-.02-.34-.05-.5-.09l.03-12.36c.17.03.33.06.5.09"/>
            <path class="cls-38" d="m441.6,57.26l-.03,12.36c-.18-.04-.36-.08-.53-.13l.03-12.36c.17.05.35.09.53.13"/>
            <path class="cls-32" d="m441.07,57.13l-.03,12.36c-.21-.06-.42-.13-.62-.21l.03-12.36c.2.08.4.15.62.21"/>
            <path class="cls-83" d="m440.46,56.92l-.03,12.36c-.26-.1-.5-.22-.73-.35l.03-12.36c.23.13.47.25.73.35"/>
          </g>
        </g>
      </g>
    </g>
    <g>
      <g>
        <path class="cls-18" d="m456.64,150.47c-.08,0-.16-.02-.23-.06-.14-.08-.23-.23-.23-.39v-24.17c0-.52.28-1,.73-1.26l13.79-7.96c.07-.04.15-.06.23-.06s.16.02.23.06c.14.08.23.23.23.39v24.17c0,.52-.28,1-.73,1.26l-13.78,7.96c-.07.04-.15.06-.23.06Z"/>
        <path class="cls-71" d="m470.92,117.03v24.17c0,.36-.19.69-.5.87l-13.79,7.96v-24.17c0-.36.19-.69.5-.87l13.79-7.96m0-.9c-.16,0-.31.04-.45.12l-13.79,7.96c-.59.34-.95.97-.95,1.65v24.17c0,.32.17.62.45.78.14.08.29.12.45.12s.31-.04.45-.12l13.79-7.96c.59-.34.95-.97.95-1.65v-24.17c0-.32-.17-.62-.45-.78-.14-.08-.29-.12-.45-.12h0Z"/>
      </g>
      <polygon class="cls-138" points="470.92 117.01 470.9 117.03 456.64 141.29 456.64 148.18 470.92 123.87 470.92 117.01"/>
      <polygon class="cls-138" points="460.01 123.31 456.64 129.06 456.64 133.4 463.88 121.08 460.01 123.31"/>
      <polygon class="cls-138" points="470.92 131.06 461.41 147.26 464.64 145.39 470.92 134.7 470.92 131.06"/>
      <line class="cls-15" x1="463.78" y1="121.15" x2="463.78" y2="145.9"/>
    </g>
    <g>
      <g>
        <path class="cls-18" d="m480.45,136.21c-.08,0-.16-.02-.23-.06-.14-.08-.23-.23-.23-.39v-24.17c0-.52.28-1,.73-1.26l13.79-7.96c.07-.04.15-.06.23-.06s.16.02.23.06c.14.08.23.23.23.39v24.17c0,.52-.28,1-.73,1.26l-13.79,7.96c-.07.04-.15.06-.23.06Z"/>
        <path class="cls-71" d="m494.74,102.77v24.17c0,.36-.19.69-.5.87l-13.79,7.96v-24.17c0-.36.19-.69.5-.87l13.79-7.96m0-.9c-.16,0-.31.04-.45.12l-13.79,7.96c-.59.34-.95.97-.95,1.65v24.17c0,.32.17.62.45.78.14.08.29.12.45.12s.31-.04.45-.12l13.79-7.96c.59-.34.95-.97.95-1.65v-24.17c0-.32-.17-.62-.45-.78-.14-.08-.29-.12-.45-.12h0Z"/>
      </g>
      <polygon class="cls-138" points="494.74 102.76 494.71 102.77 480.45 127.03 480.45 133.92 494.74 109.61 494.74 102.76"/>
      <polygon class="cls-138" points="483.83 109.05 480.45 114.8 480.45 119.14 487.69 106.82 483.83 109.05"/>
      <polygon class="cls-138" points="494.74 116.8 485.22 133 488.46 131.13 494.74 120.44 494.74 116.8"/>
      <line class="cls-15" x1="487.59" y1="106.89" x2="487.59" y2="131.64"/>
    </g>
    <g>
      <polygon class="cls-94" points="444.43 102.15 431.9 112.7 370.91 77.59 383.44 66.71 444.43 102.15"/>
      <polygon class="cls-18" points="436.7 97.66 424.15 108.42 417.69 104.52 429.64 93.56 436.7 97.66"/>
      <polygon class="cls-18" points="423.01 89.71 410.57 100.42 404.33 96.83 416.99 86.21 423.01 89.71"/>
      <polygon class="cls-18" points="409.91 82.1 397.92 93.14 391.12 89.22 403.44 78.34 409.91 82.1"/>
      <polygon class="cls-18" points="396.48 74.29 384.39 85.35 377.65 81.47 390.23 70.66 396.48 74.29"/>
      <path class="cls-120" d="m431.9,112.7v3.72c0,.58-.63.95-1.14.66l-59.47-34c-.24-.14-.38-.39-.38-.66v-4.83l60.99,35.11Z"/>
      <polygon class="cls-91" points="424.28 108.31 424.15 113.3 417.69 109.61 417.69 104.52 424.28 108.31"/>
      <polygon class="cls-91" points="410.57 100.42 410.57 105.53 404.33 101.97 404.33 96.83 410.57 100.42"/>
      <polygon class="cls-91" points="397.92 93.14 397.92 98.31 391.12 94.42 391.12 89.22 397.92 93.14"/>
      <polygon class="cls-91" points="384.39 85.35 384.39 90.57 377.65 86.72 377.65 81.47 384.39 85.35"/>
    </g>
    <g>
      <polygon class="cls-94" points="501.43 84.81 489.96 74.72 483.54 78.42 495.33 88.36 501.43 84.81"/>
      <polygon class="cls-94" points="461.95 107.76 450.33 97.54 442.35 102.13 454.04 112.36 461.95 107.76 461.95 107.76"/>
      <polygon class="cls-94" points="482.35 95.9 488.43 92.37 476.9 82.24 470.51 85.92 482.35 95.9 482.35 95.9"/>
      <polygon class="cls-94" points="475.45 99.91 463.88 89.74 457.65 93.32 469.73 103.24 475.45 99.91"/>
      <polygon class="cls-94" points="508.29 80.82 514.78 77.05 503.57 66.89 496.59 70.91 508.29 80.76 508.29 80.82"/>
      <polygon class="cls-120" points="501.43 84.81 495.33 88.36 495.33 88.36 495.62 94.46 501.45 91.15 501.45 84.83 501.43 84.81"/>
      <path class="cls-120" d="m454.04,112.36v3.63c0,.92.99,1.49,1.78,1.04l6.13-3.47v-5.79l-7.91,4.6Z"/>
      <polygon class="cls-120" points="475.45 99.91 469.73 103.24 469.73 103.24 469.73 109.14 475.51 105.86 475.51 99.96 475.45 99.91"/>
      <polygon class="cls-120" points="488.43 92.37 482.35 95.9 482.63 101.82 488.49 98.5 488.49 92.42 488.43 92.37"/>
      <path class="cls-120" d="m514.78,77.05l-6.49,3.77.3,6.28,5-2.84c.74-.42,1.2-1.2,1.2-2.05v-5.17Z"/>
      <polygon class="cls-18" points="461.95 107.76 469.73 103.24 457.65 93.32 450.33 97.54 461.95 107.76 461.95 107.76"/>
      <polygon class="cls-91" points="469.73 103.24 461.95 107.76 461.95 113.55 469.73 109.14 469.73 103.24 469.73 103.24"/>
      <polygon class="cls-18" points="482.35 95.9 482.35 95.9 470.51 85.92 463.88 89.74 475.45 99.91 482.35 95.9"/>
      <polygon class="cls-91" points="475.45 99.91 475.51 99.96 475.51 105.86 482.63 101.82 482.35 95.9 475.45 99.91"/>
      <polygon class="cls-18" points="495.33 88.36 483.54 78.42 476.9 82.24 488.43 92.37 495.33 88.36"/>
      <polygon class="cls-91" points="495.33 88.36 488.43 92.37 488.49 92.42 488.49 98.5 495.62 94.46 495.33 88.36 495.33 88.36"/>
      <polygon class="cls-18" points="508.29 80.82 508.29 80.76 496.59 70.91 489.96 74.72 501.43 84.81 508.29 80.82"/>
      <polygon class="cls-91" points="501.43 84.81 501.45 84.83 501.45 91.15 508.59 87.1 508.29 80.82 501.43 84.81"/>
    </g>
    <g class="cls-167">
      <polygon class="cls-80" points="500.79 61.5 500.78 66.39 443.08 33.08 443.09 28.19 500.79 61.5"/>
      <polygon class="cls-68" points="443.09 28.19 443.08 33.08 385.76 66.39 385.78 61.5 443.09 28.19"/>
      <path class="cls-78" d="m443.08,25.09l63.06,36.41-62.65,36.41-63.06-36.41,62.65-36.41Zm.4,69.72l57.32-33.31-57.7-33.31-57.32,33.31,57.7,33.31"/>
      <polygon class="cls-68" points="506.14 61.5 506.12 66.39 443.48 102.8 443.49 97.91 506.14 61.5"/>
      <polygon class="cls-80" points="443.49 97.91 443.48 102.8 380.42 66.39 380.43 61.5 443.49 97.91"/>
    </g>
    <g>
      <path class="cls-18" d="m428.06,163.07c-.08,0-.15-.02-.22-.06l-19.05-10.88c-.14-.08-.23-.23-.23-.39v-40.83c0-.16.08-.31.22-.39.07-.04.15-.06.23-.06.07,0,.15.02.22.05l19.05,10.38c.15.08.23.23.23.4v41.32c0,.16-.09.31-.22.39-.07.04-.15.06-.23.06Z"/>
      <path class="cls-71" d="m409.01,110.91l19.05,10.38v41.32l-19.05-10.87v-40.83m0-.9c-.16,0-.32.04-.46.13-.27.16-.44.46-.44.77v40.83c0,.32.17.62.45.78l19.05,10.87c.14.08.29.12.45.12s.31-.04.45-.12c.28-.16.45-.46.45-.78v-41.32c0-.33-.18-.63-.47-.79l-19.05-10.38c-.13-.07-.28-.11-.43-.11h0Z"/>
    </g>
    <polygon class="cls-138" points="409.01 135.02 422.95 159.67 427.41 162.22 409.01 129.69 409.01 135.02"/>
    <polygon class="cls-138" points="409.01 146.32 413.52 154.28 417.38 156.49 409.01 141.7 409.01 146.32"/>
    <polygon class="cls-138" points="409.01 111.32 409.01 121.37 428.06 155.05 428.06 145 409.01 111.32"/>
    <polygon class="cls-138" points="428.06 129.35 421.45 117.66 416.91 115.19 428.06 134.9 428.06 129.35"/>
    <line class="cls-15" x1="409.01" y1="122.71" x2="428.06" y2="133.71"/>
    <polygon class="cls-90" points="443.48 184.4 375.6 145.21 375.6 142.9 443.48 181.71 443.48 184.4"/>
    <polygon class="cls-18" points="443.48 181.71 443.48 184.4 513.36 143.85 513.36 141.36 443.48 181.71"/>
  </g>
  <text class="cls-17" transform="translate(713.24 75.77)"><tspan x="0" y="0">WELCOME TO EAZEEGO</tspan></text>
  <polygon class="cls-24" points="908.22 137.06 709.99 137.06 719.31 90.5 917.54 90.5 908.22 137.06"/>
  <text/>
  <text class="cls-10" transform="translate(727.26 124.3)"><tspan x="0" y="0">INDI</tspan><tspan class="cls-166" x="63.9" y="0">A</tspan><tspan class="cls-145" x="84.05" y="0">’S 1</tspan><tspan class="cls-168" x="134.51" y="0">S</tspan><tspan class="cls-13" x="154.51" y="0">T</tspan></text>
  <polygon class="cls-86" points="1259.82 232.5 687 232.5 693.14 206.5 1268 206.5 1259.82 232.5"/>
  <text class="cls-14" transform="translate(706.19 223.66)"><tspan class="cls-7" x="0" y="0">Boo</tspan><tspan class="cls-6" x="25.16" y="0">k</tspan><tspan class="cls-5" x="32.48" y="0"> </tspan><tspan class="cls-1" x="35.24" y="0">y</tspan><tspan class="cls-7" x="42.8" y="0">ou</tspan><tspan class="cls-2" x="59.11" y="0">r</tspan><tspan class="cls-7" x="64.46" y="0" xml:space="preserve"> Demo n</tspan><tspan class="cls-4" x="116.42" y="0">o</tspan><tspan class="cls-7" x="124.18" y="0">w:</tspan><tspan class="cls-9" x="138.93" y="0" xml:space="preserve"> +91 7268 985 985</tspan></text>
  <text class="cls-14" transform="translate(1005.77 223.14)"><tspan class="cls-3" x="0" y="0">R</tspan><tspan class="cls-7" x="8.97" y="0">each Out</tspan><tspan class="cls-8" x="67.53" y="0"> </tspan><tspan class="cls-7" x="70.4" y="0">to:</tspan><tspan class="cls-9" x="87.74" y="0" xml:space="preserve"> ea</tspan><tspan class="cls-12" x="107.05" y="0">z</tspan><tspan class="cls-9" x="114.4" y="0">eego@elec</tspan><tspan class="cls-11" x="186.13" y="0">r</tspan><tspan class="cls-9" x="192.22" y="0">oom.in</tspan></text>
</svg>